<?xml version="1.0" encoding="UTF-8"?>
<svg xmlns="http://www.w3.org/2000/svg" viewBox="825.11 655.97 167.70 181.79">
  <defs>
    <linearGradient id="Gradient4" gradientUnits="userSpaceOnUse" x1="904.585" y1="772.253" x2="907.278" y2="723.463">
      <stop class="stop0" offset="0" stop-opacity="1" stop-color="rgb(104,204,71)"/>
      <stop class="stop1" offset="1" stop-opacity="1" stop-color="rgb(154,244,85)"/>
    </linearGradient>
    <linearGradient id="Gradient22" gradientUnits="userSpaceOnUse" x1="898.641" y1="819.398" x2="874.418" y2="675.809">
      <stop class="stop0" offset="0" stop-opacity="1" stop-color="rgb(46,56,64)"/>
      <stop class="stop1" offset="1" stop-opacity="1" stop-color="rgb(106,111,117)"/>
    </linearGradient>
  </defs>
  <path transform="translate(0,0)" fill="url(#Gradient22)" d="M 894.894 670.424 C 904.685 670.195 913.279 670.154 923.062 670.47 C 925.737 679.356 925.164 696.9 936 697.114 L 937.216 699.019 C 935.001 701.847 934.335 703.697 930.273 703.955 C 914.029 704.985 897.124 703.92 880.799 704.21 C 872.983 711.648 863.138 719.07 857.589 728.282 C 843.404 751.833 847.973 780.631 866.881 800.027 C 883.344 816.915 897.159 813.13 918.259 814.099 C 910.694 816.97 904.628 813.609 900.747 816.41 C 901.208 817.568 901.592 818.652 902.174 819.755 C 886.833 820.427 884.477 821.874 871.243 814.196 C 867.183 814.223 863.223 816.286 859.347 817.869 C 854.276 812.478 837.086 790.12 833.38 784.14 C 833.157 764.691 833.113 745.241 833.247 725.791 C 840.644 716.026 859.518 691.842 872.09 693.321 C 878.568 694.083 881.88 697.175 886.358 696.096 C 891.429 691.021 893.349 677.681 894.894 670.424 z"/>
  <path transform="translate(0,0)" fill="rgb(56,65,73)" d="M 967.579 764.473 L 984.363 760.023 C 984.493 767.97 984.816 776.556 984.4 784.443 C 976.622 794.874 968.779 805.284 960.533 815.336 C 948.701 829.758 950.088 825.128 936.339 821.183 C 926.962 822.808 894.237 821.36 883.369 820.932 C 871.881 829.04 868.264 827.939 859.347 817.869 C 863.223 816.286 867.183 814.223 871.243 814.196 C 884.477 821.874 886.833 820.427 902.174 819.755 C 901.592 818.652 901.208 817.568 900.747 816.41 C 904.628 813.609 910.694 816.97 918.259 814.099 C 948.696 809.63 960.834 793.898 967.579 764.473 z"/>
  <path transform="translate(0,0)" fill="rgb(101,188,74)" d="M 946.221 701.38 C 954.269 700.7 961.05 700.779 969.093 700.831 C 971.531 706.519 984.051 741.075 983.738 744.453 C 981.785 747.054 980.044 747.072 976.807 747.883 C 968.593 748.192 946.359 749.805 939.907 747.278 C 937.434 741.837 942.88 704.991 946.221 701.38 z"/>
  <path transform="translate(0,0)" fill="url(#Gradient4)" d="M 894.085 722.355 C 902.726 722.137 911.748 722.204 920.425 722.141 C 919.99 738.716 918.723 756.616 917.796 773.252 C 911.629 774.657 903.729 774.242 897.302 774.111 C 896.197 757.226 894.718 739.171 894.085 722.355 z"/>
  <path transform="translate(0,0)" fill="rgb(101,188,74)" d="M 900.412 783.471 C 906.368 783.245 914.344 781.576 918.372 785.861 C 920.333 792.308 919.162 796.516 913.031 798.846 C 906.111 799.641 899.443 801.528 895.075 794.673 C 894.008 789.485 895.467 785.457 900.412 783.471 z"/>
  <path transform="translate(0,0)" fill="rgb(161,235,93)" d="M 951.103 664.528 L 967.777 663.968 C 967.685 669.686 967.835 678.767 966.79 684.117 C 959.506 682.71 956.112 682.356 948.689 682.046 C 948.875 677.541 948.822 667.896 951.103 664.528 z"/>
  <path transform="translate(0,0)" fill="rgb(56,65,73)" d="M 936 697.114 C 938.958 695.786 940.723 694.546 943.811 695.138 C 942.746 697.272 939.952 697.819 937.216 699.019 L 936 697.114 z"/>
</svg>