<?xml version="1.0" encoding="UTF-8"?>
<svg xmlns="http://www.w3.org/2000/svg" viewBox="1069.81 417.92 213.01 204.43">
  <defs>
    <linearGradient id="Gradient1" gradientUnits="userSpaceOnUse" x1="1261.01" y1="561.735" x2="1259.05" y2="532.195">
      <stop class="stop0" offset="0" stop-opacity="1" stop-color="rgb(76,141,79)"/>
      <stop class="stop1" offset="1" stop-opacity="1" stop-color="rgb(115,190,88)"/>
    </linearGradient>
    <linearGradient id="Gradient6" gradientUnits="userSpaceOnUse" x1="1177.96" y1="482.926" x2="1175.65" y2="425.37">
      <stop class="stop0" offset="0" stop-opacity="1" stop-color="rgb(60,68,81)"/>
      <stop class="stop1" offset="1" stop-opacity="1" stop-color="rgb(106,108,113)"/>
    </linearGradient>
    <linearGradient id="Gradient29" gradientUnits="userSpaceOnUse" x1="1175.09" y1="592.099" x2="1176.2" y2="523.825">
      <stop class="stop0" offset="0" stop-opacity="1" stop-color="rgb(86,186,65)"/>
      <stop class="stop1" offset="1" stop-opacity="1" stop-color="rgb(133,227,77)"/>
    </linearGradient>
  </defs>
  <path transform="translate(0,0)" fill="url(#Gradient29)" d="M 1158.59 521.171 L 1158.36 522.681 L 1158.94 523.443 C 1178.92 521.111 1197.77 520.921 1214.47 534.309 C 1223.13 541.26 1228.64 551.401 1229.75 562.453 C 1230.15 566.197 1230.08 571.993 1230 575.877 C 1205.39 598.831 1146.15 601.85 1122.95 576.652 C 1122.35 576.003 1121.77 575.342 1121.2 574.67 C 1121.12 551.082 1128.44 535.777 1151 526.14 L 1150.51 523.323 L 1158.59 521.171 z"/>
  <path transform="translate(0,0)" fill="rgb(11,38,11)" d="M 1158.59 521.171 L 1158.36 522.681 L 1158.94 523.443 L 1151 526.14 L 1150.51 523.323 L 1158.59 521.171 z"/>
  <path transform="translate(0,0)" fill="rgb(19,22,29)" d="M 1152.29 545.571 C 1158.52 546.12 1160.56 548.898 1161.44 555.051 C 1162.24 560.93 1160.56 566.878 1156.81 571.472 C 1143.45 570.722 1145.87 552.93 1152.29 545.571 z"/>
  <path transform="translate(0,0)" fill="rgb(19,22,29)" d="M 1196.21 545.329 C 1208.34 547.934 1206.28 564.587 1199.05 571.959 C 1187.09 568.355 1188.94 552.906 1196.21 545.329 z"/>
  <path transform="translate(0,0)" fill="rgb(161,235,93)" d="M 1127.61 454.139 C 1149.97 465.402 1164.72 496.801 1158.59 521.171 L 1150.51 523.323 C 1146.53 521.975 1142.45 521.002 1138.84 518.802 C 1117.49 505.766 1115.71 474.043 1127.61 454.139 z"/>
  <path transform="translate(0,0)" fill="rgb(161,235,93)" d="M 1223.4 454.801 C 1235.54 459.211 1238.66 516.553 1200.11 523.635 C 1186.62 521.604 1191.93 503.39 1194.17 494.111 C 1197.95 478.494 1209.51 462.955 1223.4 454.801 z"/>
  <path transform="translate(0,0)" fill="url(#Gradient6)" d="M 1107.36 427.197 C 1123.13 425.924 1140.11 426.796 1155.99 426.544 C 1171.3 426.551 1186.45 426.428 1201.76 426.809 C 1215.3 427.146 1223.48 435.871 1233.11 444.151 C 1240.27 450.304 1247.56 456.634 1253.83 463.626 C 1254.67 470.58 1255.68 476.345 1251.82 482.388 L 1250.17 482.575 C 1245.46 477.493 1246.52 470.386 1246.51 463.397 C 1243.09 459.052 1236.44 452.901 1232.31 448.856 C 1226.33 443.736 1219.54 436.595 1211.99 434.006 C 1203.36 431.047 1123.95 432.749 1108.98 432.704 C 1108.89 441.867 1111.06 477.219 1106.36 482.044 L 1104.37 481.72 C 1103.84 481.139 1103.18 480.41 1102.39 479.533 C 1101.46 468.455 1101.07 453.734 1101.37 442.84 C 1101.59 434.379 1102.36 431.732 1107.36 427.197 z"/>
  <path transform="translate(0,0)" fill="url(#Gradient1)" d="M 1266.55 530.446 C 1269.62 529.916 1268.24 529.686 1270.86 530.783 C 1274.82 543.213 1272.69 559.903 1258.52 564.476 C 1255.49 564.437 1252.78 564.826 1250.38 563.225 C 1249.38 555.768 1249.94 540.265 1250.02 532.136 L 1266.55 530.446 z"/>
  <path transform="translate(0,0)" fill="rgb(101,188,74)" d="M 1080.88 529.75 C 1088.05 530.603 1095.23 531.406 1102.42 532.16 C 1102.39 542.617 1102.43 553.074 1102.55 563.529 C 1077.81 569.557 1080.65 545.543 1080.88 529.75 z"/>
  <path transform="translate(0,0)" fill="rgb(122,210,78)" d="M 1261.72 494.192 C 1265.17 493.954 1267.42 493.359 1270.29 495.092 C 1273.99 500.705 1271.93 516.225 1271.85 524.443 L 1257.78 526.219 C 1249.31 527.213 1249.55 524.999 1249.81 516.38 C 1249.94 512.255 1250.11 507.982 1250.18 503.842 C 1254 497.856 1255.5 496.721 1261.72 494.192 z"/>
  <path transform="translate(0,0)" fill="rgb(122,210,78)" d="M 1080.84 493.967 C 1081.48 493.951 1082.13 493.941 1082.78 493.936 C 1105.69 493.777 1102.51 510.28 1102.05 527.137 L 1080.91 524.517 L 1080.84 493.967 z"/>
  <path transform="translate(0,0)" fill="rgb(56,65,73)" d="M 1252.7 580.828 C 1255.26 584.753 1254.21 589.742 1254.74 594.437 C 1256.86 613.136 1232.61 608.124 1220 607.939 L 1218.46 607.326 L 1217.88 604.963 C 1220.6 595.735 1237.44 598.772 1246.03 598.894 C 1245.77 588.758 1243.48 585.3 1252.7 580.828 z"/>
  <path transform="translate(0,0)" fill="rgb(56,65,73)" d="M 1101.51 581.254 C 1111.6 583.492 1109.52 590.087 1109.59 598.891 C 1117.55 599.114 1125.56 597.163 1132.33 600.145 C 1134.77 603.418 1134.01 603.142 1134.26 607.904 C 1106.26 607.651 1099.78 614.349 1101.51 581.254 z"/>
</svg>