<?xml version="1.0" encoding="UTF-8"?>
<svg xmlns="http://www.w3.org/2000/svg" viewBox="811.93 417.54 214.60 201.01">
  <defs>
    <linearGradient id="Gradient3" gradientUnits="userSpaceOnUse" x1="897.791" y1="480.823" x2="898.612" y2="427.168">
      <stop class="stop0" offset="0" stop-opacity="1" stop-color="rgb(73,78,87)"/>
      <stop class="stop1" offset="1" stop-opacity="1" stop-color="rgb(109,111,117)"/>
    </linearGradient>
    <linearGradient id="Gradient15" gradientUnits="userSpaceOnUse" x1="949.773" y1="539.143" x2="950.307" y2="472.914">
      <stop class="stop0" offset="0" stop-opacity="1" stop-color="rgb(109,212,75)"/>
      <stop class="stop1" offset="1" stop-opacity="1" stop-color="rgb(160,245,89)"/>
    </linearGradient>
    <linearGradient id="Gradient16" gradientUnits="userSpaceOnUse" x1="888.865" y1="539.684" x2="886.019" y2="472.575">
      <stop class="stop0" offset="0" stop-opacity="1" stop-color="rgb(109,210,73)"/>
      <stop class="stop1" offset="1" stop-opacity="1" stop-color="rgb(156,242,89)"/>
    </linearGradient>
    <linearGradient id="Gradient20" gradientUnits="userSpaceOnUse" x1="952.685" y1="595.286" x2="978.122" y2="502.119">
      <stop class="stop0" offset="0" stop-opacity="1" stop-color="rgb(83,185,67)"/>
      <stop class="stop1" offset="1" stop-opacity="1" stop-color="rgb(143,236,78)"/>
    </linearGradient>
  </defs>
  <path transform="translate(0,0)" fill="url(#Gradient20)" d="M 978.5 510.315 C 979.237 505.358 978.469 505.319 981.266 501.96 C 989.253 498.655 991.909 499.727 1000.45 501.409 C 1000.98 504.817 1000.75 505.691 1000.35 509.183 C 1000.37 531.419 999.973 553.653 999.143 575.873 C 967.831 576.076 952.679 578.251 924.334 591.834 L 924.137 551.15 C 954.362 551.135 969.327 538.639 978.5 510.315 z"/>
  <path transform="translate(0,0)" fill="rgb(161,235,93)" d="M 978.5 510.315 C 979.237 505.358 978.469 505.319 981.266 501.96 C 989.253 498.655 991.909 499.727 1000.45 501.409 C 1000.98 504.817 1000.75 505.691 1000.35 509.183 C 995.488 506.82 983.745 508.298 979.669 511.305 L 978.5 510.315 z"/>
  <path transform="translate(0,0)" fill="rgb(122,210,78)" d="M 858.445 500.642 C 860.14 512.446 862.08 518.24 867.404 528.909 C 881.241 545.849 892.397 551.33 914.001 551.135 L 913.852 592.564 C 885.155 577.61 871.142 576.361 839.016 575.361 C 838.946 567.959 837.677 537.65 838.174 532.058 C 837.872 521.649 837.693 511.237 837.637 500.823 L 858.445 500.642 z"/>
  <path transform="translate(0,0)" fill="rgb(161,235,93)" d="M 858.445 500.642 C 860.14 512.446 862.08 518.24 867.404 528.909 L 865.726 529.207 C 864.103 526.081 862.871 522.026 859.397 521.349 C 855.119 520.515 844.417 523.161 840.502 524.731 C 838.614 527.537 839.396 528.243 839.708 532.254 L 838.174 532.058 C 837.872 521.649 837.693 511.237 837.637 500.823 L 858.445 500.642 z"/>
  <path transform="translate(0,0)" fill="url(#Gradient16)" d="M 875.852 470.811 C 898.246 473.988 908.623 500.987 908.921 520.679 C 909.012 526.728 910.68 536.567 906.506 541.504 L 901.476 541.737 C 871.269 536.658 854.67 488.633 875.852 470.811 z"/>
  <path transform="translate(0,0)" fill="url(#Gradient15)" d="M 956.317 472.053 C 981.282 469.347 976.909 525.844 942.737 540.29 C 937.998 541.476 934.56 541.646 929.711 542.039 C 929.915 514.047 927.915 487.654 956.317 472.053 z"/>
  <path transform="translate(0,0)" fill="rgb(56,65,73)" d="M 820.977 543.385 C 820.897 537.587 819.927 529.574 824.668 525.532 C 830.416 529.311 829.193 540.045 829.132 546.316 C 832.235 554.371 825.279 584.101 835.577 583.848 C 851.838 583.448 906.718 587.974 911.244 606.154 L 909.839 607.941 C 900.843 610.55 896.787 600.819 883.669 600.954 C 863.319 601.164 842.374 604.01 822.058 605.517 C 821.921 584.802 821.011 563.866 820.977 543.385 z"/>
  <path transform="translate(0,0)" fill="rgb(99,103,109)" d="M 820.977 543.385 C 820.897 537.587 819.927 529.574 824.668 525.532 C 830.416 529.311 829.193 540.045 829.132 546.316 L 828.486 547.74 L 827.358 543.893 C 825.689 544.864 823.904 545.607 822.269 546.629 L 820.977 543.385 z"/>
  <path transform="translate(0,0)" fill="rgb(56,65,73)" d="M 1008.98 537.924 C 1011.71 537.864 1014.28 537.84 1017.01 537.585 L 1016.95 545.174 C 1016.76 554.727 1017.13 598.383 1014.13 604.219 C 1005.02 608.356 967.083 601.341 955.685 600.645 C 948.359 600.198 933.751 606.721 926.981 605.688 L 926.238 604.006 C 928.485 600.22 932.918 598.021 937.016 595.97 C 956.919 586.025 979.009 584.091 1000.88 584.822 C 1002.28 584.869 1005.22 582.743 1005.71 581.51 C 1009.54 571.877 1008.71 556.143 1008.94 545.891 L 1008.98 537.924 z"/>
  <path transform="translate(0,0)" fill="rgb(88,91,101)" d="M 1008.98 537.924 C 1011.71 537.864 1014.28 537.84 1017.01 537.585 L 1016.95 545.174 C 1013.4 546.242 1011.67 545.279 1008.94 545.891 L 1008.98 537.924 z"/>
  <path transform="translate(0,0)" fill="url(#Gradient3)" d="M 846.987 427.141 C 868.188 425.542 893.797 427.255 915.521 426.593 C 920.638 426.438 950.91 426.299 954.517 427.059 C 956.655 429.482 956.128 428.101 956.132 431.347 C 952.898 434.245 909.354 432.978 901.5 432.925 L 848.974 432.936 C 849.033 440.92 850.164 477.567 847.485 482.755 L 845.504 482.955 L 843.191 481.021 C 842.539 479.94 841.669 478.075 841.826 476.86 C 843.623 462.877 837.275 437.898 846.987 427.141 z"/>
  <path transform="translate(0,0)" fill="rgb(122,210,78)" d="M 962.443 426.45 C 969.577 429.365 1004.53 459.652 1005.24 466.908 C 996.079 467.871 981.724 467.264 972.16 467.06 C 957.899 457.359 962.047 442.102 962.443 426.45 z"/>
  <path transform="translate(0,0)" fill="rgb(99,103,109)" d="M 1008.98 537.924 C 1008.88 533.52 1008.26 530.171 1010.51 526.568 L 1012.68 525.045 C 1018.53 526.917 1017.2 532.38 1017.01 537.585 C 1014.28 537.84 1011.71 537.864 1008.98 537.924 z"/>
  <path transform="translate(0,0)" fill="rgb(56,65,73)" d="M 997.972 474.9 C 1000.45 474.578 1002.74 476.269 1003.17 478.733 C 1003.59 481.196 1002 483.556 999.552 484.082 C 997.878 484.443 996.142 483.857 995.028 482.556 C 993.915 481.255 993.604 479.449 994.218 477.851 C 994.832 476.252 996.273 475.12 997.972 474.9 z"/>
</svg>