<?xml version="1.0" encoding="UTF-8"?>
<svg xmlns="http://www.w3.org/2000/svg" viewBox="1330.44 418.15 191.18 198.81">
  <defs>
    <linearGradient id="Gradient2" gradientUnits="userSpaceOnUse" x1="1408.31" y1="555.819" x2="1429.16" y2="490.693">
      <stop class="stop0" offset="0" stop-opacity="1" stop-color="rgb(104,199,74)"/>
      <stop class="stop1" offset="1" stop-opacity="1" stop-color="rgb(152,243,90)"/>
    </linearGradient>
    <linearGradient id="Gradient7" gradientUnits="userSpaceOnUse" x1="1410.55" y1="500.944" x2="1428.84" y2="421.944">
      <stop class="stop0" offset="0" stop-opacity="1" stop-color="rgb(75,84,94)"/>
      <stop class="stop1" offset="1" stop-opacity="1" stop-color="rgb(118,120,125)"/>
    </linearGradient>
    <linearGradient id="Gradient9" gradientUnits="userSpaceOnUse" x1="1375.85" y1="564.333" x2="1362.42" y2="488.651">
      <stop class="stop0" offset="0" stop-opacity="1" stop-color="rgb(95,195,70)"/>
      <stop class="stop1" offset="1" stop-opacity="1" stop-color="rgb(157,245,88)"/>
    </linearGradient>
    <linearGradient id="Gradient10" gradientUnits="userSpaceOnUse" x1="1455.71" y1="563.961" x2="1476.91" y2="491.4">
      <stop class="stop0" offset="0" stop-opacity="1" stop-color="rgb(101,198,71)"/>
      <stop class="stop1" offset="1" stop-opacity="1" stop-color="rgb(153,243,86)"/>
    </linearGradient>
  </defs>
  <path transform="translate(0,0)" fill="rgb(56,65,73)" d="M 1496.42 555.522 C 1500.87 559.441 1498.28 575.425 1498.71 581.973 C 1499.22 589.539 1500.31 600.859 1494.71 606.508 C 1487 608.897 1357.83 608.962 1347.31 605.961 C 1343.27 599.478 1344.84 576.315 1344.95 567.771 L 1344.97 561.322 C 1346.66 558.361 1345.47 559.349 1348.65 558.223 C 1355.01 562.311 1352.46 591.109 1352.32 598.65 C 1398.28 598.951 1444.23 598.956 1490.18 598.664 C 1490.48 587.935 1489.36 576.823 1490.31 566.182 C 1490.84 560.145 1491.95 559.009 1496.42 555.522 z"/>
  <path transform="translate(0,0)" fill="url(#Gradient10)" d="M 1449.72 482.808 C 1462.08 483.285 1480.51 505.624 1491.67 512.169 C 1513.62 525.039 1491.14 535.305 1480.61 544.614 C 1473.51 550.89 1465.57 556.791 1458.7 562.387 C 1455.48 564.228 1449.93 565.917 1446.82 563.134 C 1437.03 554.358 1456.7 541.829 1462.65 536.785 C 1467.74 532.467 1473.57 528.085 1478.84 523.906 C 1469.06 515.247 1457.87 507.881 1448.61 498.74 C 1442.18 492.392 1443.19 487.875 1449.72 482.808 z"/>
  <path transform="translate(0,0)" fill="url(#Gradient9)" d="M 1383.34 482.963 C 1389.63 482.956 1393.24 484.102 1394.81 490.241 C 1393.16 500.163 1368.68 517.054 1360.05 523.932 C 1367.52 529.454 1416.66 562.352 1384.74 565.03 C 1381.84 563.229 1374.22 557.318 1371.79 554.952 C 1364.47 547.803 1338.85 531.972 1338.44 522.11 C 1341.8 515.404 1375.34 489.339 1383.34 482.963 z"/>
  <path transform="translate(0,0)" fill="url(#Gradient7)" d="M 1357.91 426.467 C 1389.05 426.605 1424.94 427.46 1455.7 426.153 C 1464.98 430.569 1473.4 438.394 1481.45 444.909 C 1487.03 449.426 1503.77 460.832 1498.58 468.657 C 1479.83 476.998 1477.66 451.183 1466.96 440.514 L 1466.06 439.62 C 1453.49 430.148 1429.75 432.868 1414.29 432.937 L 1352.23 433.223 C 1352.43 449.021 1352.43 466.863 1352.01 482.789 C 1351.96 484.959 1350.53 485.397 1348.63 486.837 L 1346.56 486.539 C 1342.51 480.203 1346.27 450.071 1344.76 440.747 C 1343.18 431.014 1348.8 427.187 1357.91 426.467 z"/>
  <path transform="translate(0,0)" fill="url(#Gradient2)" d="M 1423.71 487.425 C 1426.54 487.837 1431.45 488.441 1430.97 492.443 C 1429.17 507.49 1424.91 522.49 1421.85 537.359 C 1420.47 544.052 1418.68 554.897 1414.42 559.865 C 1410.64 559.118 1409.3 559.014 1407.35 555.714 C 1406.92 549.034 1419.69 492.708 1423.71 487.425 z"/>
  <path transform="translate(0,0)" fill="rgb(56,65,73)" d="M 1491.04 480.693 C 1494.95 480.704 1495.63 480.074 1498.04 482.87 C 1498.94 486.409 1497.87 489.91 1497.18 493.611 C 1490.59 489.543 1489.14 488.373 1491.04 480.693 z"/>
</svg>