<?xml version="1.0" encoding="UTF-8"?>
<svg xmlns="http://www.w3.org/2000/svg" viewBox="286.58 417.39 178.38 200.43">
  <defs>
    <linearGradient id="Gradient19" gradientUnits="userSpaceOnUse" x1="372.218" y1="548.127" x2="370.162" y2="470.446">
      <stop class="stop0" offset="0" stop-opacity="1" stop-color="rgb(100,200,69)"/>
      <stop class="stop1" offset="1" stop-opacity="1" stop-color="rgb(164,251,90)"/>
    </linearGradient>
    <linearGradient id="Gradient25" gradientUnits="userSpaceOnUse" x1="362.457" y1="614.277" x2="388.63" y2="426.278">
      <stop class="stop0" offset="0" stop-opacity="1" stop-color="rgb(57,65,74)"/>
      <stop class="stop1" offset="1" stop-opacity="1" stop-color="rgb(101,105,113)"/>
    </linearGradient>
  </defs>
  <path transform="translate(0,0)" fill="url(#Gradient25)" d="M 301.464 427.014 C 331.594 425.393 364.816 427.962 395.198 426.564 C 397.922 426.439 402.095 426.303 404.018 428.124 L 404.069 431.22 C 403.496 431.675 402.924 432.129 402.351 432.584 C 381.111 432.946 322.995 432.833 304.984 432.841 L 305.027 598.852 L 447.039 598.88 L 447.168 549.353 C 447.049 529.575 447.26 498.74 447.076 477.921 C 447.504 477.164 447.933 476.407 448.362 475.651 C 451.233 474.625 451.728 474.877 454.87 475.266 L 455.913 476.705 C 456.952 490.484 456.95 600.963 454.298 605.679 C 447.856 609.821 413.88 608.102 403.365 608.122 L 340.783 608.232 C 332.901 608.243 303.202 609.391 298.524 605.922 C 294.576 593.396 296.106 550.89 296.132 535.685 L 296.115 444.918 C 296.144 435.308 295.075 433.38 301.464 427.014 z"/>
  <path transform="translate(0,0)" fill="url(#Gradient19)" d="M 360.561 533.119 C 354.517 533.148 339.26 534.341 335.261 530.576 C 337.235 524.198 383.913 470.903 391.34 464.847 C 390.012 477.886 385.362 496.856 382.514 510.102 C 387.858 510.034 405.604 508.903 408.721 511.9 C 406.248 517.926 381.774 548.404 377.647 551.166 C 374.166 555.934 360.682 574.337 354.616 572.937 C 352.074 567.181 356.726 552.913 358.349 546.254 C 359.085 542.157 360.109 537.182 360.561 533.119 z"/>
  <path transform="translate(0,0)" fill="rgb(101,188,74)" d="M 358.349 546.254 C 364.092 550.818 375.52 546.646 376.267 550.74 L 377.647 551.166 C 374.166 555.934 360.682 574.337 354.616 572.937 C 352.074 567.181 356.726 552.913 358.349 546.254 z"/>
  <path transform="translate(0,0)" fill="rgb(122,210,78)" d="M 410.662 426.858 C 419.259 430.443 450.733 459.853 456.797 467.975 C 411.353 469.333 410.136 474.39 410.662 426.858 z"/>
</svg>