<?xml version="1.0" encoding="UTF-8"?>
<svg xmlns="http://www.w3.org/2000/svg" viewBox="555.08 418.04 179.34 199.66">
  <defs>
    <linearGradient id="Gradient8" gradientUnits="userSpaceOnUse" x1="687.172" y1="567.711" x2="671.504" y2="480.55">
      <stop class="stop0" offset="0" stop-opacity="1" stop-color="rgb(92,195,65)"/>
      <stop class="stop1" offset="1" stop-opacity="1" stop-color="rgb(153,241,90)"/>
    </linearGradient>
    <linearGradient id="Gradient24" gradientUnits="userSpaceOnUse" x1="646.067" y1="608.813" x2="638.685" y2="425.317">
      <stop class="stop0" offset="0" stop-opacity="1" stop-color="rgb(56,64,74)"/>
      <stop class="stop1" offset="1" stop-opacity="1" stop-color="rgb(94,99,107)"/>
    </linearGradient>
  </defs>
  <path transform="translate(0,0)" fill="url(#Gradient24)" d="M 569.092 427.058 C 584.112 426.15 605.551 426.771 621.132 426.704 C 634.63 426.645 656.143 426.036 668.861 426.876 C 671.256 428.798 670.658 427.61 671.004 430.398 C 666.171 434.848 584.591 432.858 572.459 432.826 C 573.55 487.009 572.28 543.97 572.862 598.867 L 714.745 598.795 L 714.955 550.75 C 715.073 536.039 715.088 521.327 715.001 506.616 C 714.968 501.983 713.826 477.773 716.452 475.526 C 719.826 475.451 721.025 474.836 723.492 476.428 C 726.42 503.201 721.938 538.02 723.984 565.492 C 724.658 574.544 724.463 599.232 721.053 606.65 C 711.818 609.698 673.8 608.085 662.232 608.261 C 633.255 608.702 603.213 608.026 574.137 608.07 C 565.148 608.083 563.448 603.354 563.745 595.336 C 564.405 541.46 563.078 487.47 564.276 433.641 C 564.312 432.05 567.947 428.279 569.092 427.058 z"/>
  <path transform="translate(0,0)" fill="url(#Gradient8)" d="M 666.578 479.42 C 694.606 478.223 691.113 483.256 692.213 507.315 C 692.589 515.539 694.813 516.498 700.574 521.233 C 703.902 529.516 698.791 531.758 692.952 535.197 C 691.822 547.921 695.665 562.36 685.262 570.804 C 678.393 571.404 673.403 571.478 666.587 571.465 C 666.649 567.494 666.176 562.471 668.083 559.302 C 682.098 552.022 671.07 538.982 678.665 527.861 C 679.85 526.126 679.767 526.513 680.287 524.577 C 671.961 514.2 677.055 513.394 675.137 499.759 C 674.341 494.103 672.824 495.337 667.912 491.35 C 666.05 487.886 666.57 483.545 666.578 479.42 z"/>
  <path transform="translate(0,0)" fill="rgb(122,210,78)" d="M 602.311 479.435 L 617.239 479.251 C 617.19 489.565 618.71 492.208 608.652 495.734 C 608.332 504.926 610.399 517.645 604.487 523.081 C 603.632 523.867 603.354 524.719 603.204 525.874 L 608.117 532.076 C 608.393 536.809 607.69 550.964 609.391 554.178 C 611.274 557.737 619.467 559.339 617.807 569.313 C 615.545 571.787 616.66 571.038 613.238 571.875 C 582.101 571.143 596.676 558.046 590.618 536.014 C 589.737 532.81 584.039 531.838 583.163 528.506 C 579.902 518.34 588.432 518.521 590.883 513.774 C 596.686 502.541 583.301 483.123 602.311 479.435 z"/>
  <path transform="translate(0,0)" fill="rgb(122,210,78)" d="M 678.404 426.75 C 685.619 430.491 719.832 460.929 723.383 467.738 C 678.535 471.017 676.383 470.744 678.404 426.75 z"/>
</svg>