<?xml version="1.0" encoding="UTF-8"?>
<svg xmlns="http://www.w3.org/2000/svg" viewBox="1555.39 445.77 218.94 158.87">
  <defs>
    <linearGradient id="Gradient31" gradientUnits="userSpaceOnUse" x1="1659.6" y1="597.684" x2="1666.58" y2="486.453">
      <stop class="stop0" offset="0" stop-opacity="1" stop-color="rgb(82,176,72)"/>
      <stop class="stop1" offset="1" stop-opacity="1" stop-color="rgb(149,238,85)"/>
    </linearGradient>
  </defs>
  <path transform="translate(0,0)" fill="url(#Gradient31)" d="M 1570.34 490.275 C 1588.68 489.612 1750.26 488.087 1758.49 491.627 C 1766.33 504.209 1761.07 549.821 1762.44 566.317 C 1762.91 571.965 1763.29 589.199 1760.08 593.234 C 1756.28 595.234 1738.24 596.633 1737.01 590.589 C 1734 575.766 1729.76 564.454 1722.87 550.971 C 1682.85 491.507 1615.78 516.19 1602.34 579.784 C 1598.77 596.645 1594.97 594.178 1578.68 594.853 C 1573.36 595.074 1564.28 595.129 1564.31 587.451 C 1564.43 558.626 1563.39 529.588 1564.54 500.79 C 1564.76 495.413 1566.28 493.487 1570.34 490.275 z"/>
  <path transform="translate(0,0)" fill="rgb(161,235,93)" d="M 1616.52 455.488 C 1619.89 455.443 1624.17 455.683 1627.61 455.785 C 1633.52 459.247 1641.86 467.19 1648.5 471.924 C 1679.31 472.225 1710.2 471.381 1741 471.982 C 1745.73 472.074 1757.06 473.347 1756.64 479.657 C 1751.82 483.756 1743.47 481.946 1737.15 481.891 L 1705.11 481.848 L 1616.89 481.689 C 1604.81 481.675 1574.34 480.252 1564.73 484.347 C 1563.88 453.846 1565.77 453.773 1595.45 455.574 C 1601.53 455.943 1610.26 455.547 1616.52 455.488 z"/>
  <path transform="translate(0,0)" fill="rgb(56,65,73)" d="M 1688.96 537.123 C 1711.83 547.761 1720.04 570.732 1722.85 594.15 C 1717.51 594.287 1693.42 595.501 1691.76 592.927 C 1687.16 585.805 1688.91 546.198 1688.96 537.123 z"/>
</svg>