<?xml version="1.0" encoding="UTF-8"?>
<svg xmlns="http://www.w3.org/2000/svg" viewBox="433.31 49.51 341.12 358.55">
  <defs>
    <linearGradient id="Gradient33" gradientUnits="userSpaceOnUse" x1="591.3" y1="349.005" x2="594.685" y2="123.988">
      <stop class="stop0" offset="0" stop-opacity="1" stop-color="rgb(85,188,59)"/>
      <stop class="stop1" offset="1" stop-opacity="1" stop-color="rgb(162,246,91)"/>
    </linearGradient>
    <linearGradient id="Gradient34" gradientUnits="userSpaceOnUse" x1="573.02" y1="382.516" x2="618.534" y2="116.335">
      <stop class="stop0" offset="0" stop-opacity="1" stop-color="rgb(38,46,56)"/>
      <stop class="stop1" offset="1" stop-opacity="1" stop-color="rgb(88,95,102)"/>
    </linearGradient>
  </defs>
  <path transform="translate(0,0)" fill="none" d="M 536.694 90.0699 C 610.641 57.5088 697.203 87.0458 735.823 158.017 C 766.432 214.267 759.401 283.533 718.115 332.486 C 676.829 381.439 609.741 400.054 549.134 379.373 C 488.527 358.693 446.811 302.952 444.06 238.972 C 441.309 174.993 478.085 115.877 536.694 90.0699 z"/>
  <path transform="translate(0,0)" fill="none" d="M 735.823 158.017 C 766.432 214.267 759.401 283.533 718.115 332.486 C 676.829 381.439 609.741 400.054 549.134 379.373 C 488.527 358.693 446.811 302.952 444.06 238.972 C 441.309 174.993 478.085 115.877 536.694 90.0699 C 532.418 95.2783 526.818 94.8352 522.962 99.7034 L 523.534 101.862 C 532.382 103.495 545.296 89.9536 559.724 91.3833 C 499.748 108.205 456.998 161.154 453.192 223.327 C 449.387 285.501 485.361 343.268 542.837 367.279 C 600.313 391.29 666.69 376.28 708.243 329.876 C 749.796 283.472 757.416 215.847 727.23 161.36 C 733.319 166.217 732.796 172.622 736.938 174.026 C 741.443 166.944 734.99 164.581 735.823 158.017 z"/>
  <path transform="translate(0,0)" fill="none" d="M 536.694 90.0699 C 610.641 57.5088 697.203 87.0458 735.823 158.017 C 734.99 164.581 741.443 166.944 736.938 174.026 C 732.796 172.622 733.319 166.217 727.23 161.36 C 694.362 102.03 625.029 73.0663 559.724 91.3833 C 545.296 89.9536 532.382 103.495 523.534 101.862 L 522.962 99.7034 C 526.818 94.8352 532.418 95.2783 536.694 90.0699 z"/>
  <path transform="translate(0,0)" fill="url(#Gradient33)" d="M 524.847 120.833 C 535.664 120.805 550.693 136.089 557.994 143.567 C 585.69 171.931 583.177 201.144 581.766 237.444 C 587.31 236.552 593.419 235.877 599.015 235.921 C 619.963 235.902 640.02 244.395 654.585 259.45 C 672.275 277.762 676.96 297.815 676.561 322.445 C 665.476 337.583 648.147 343.3 630.895 348.16 C 598.264 354.792 541.76 352.583 521.764 321.75 C 521.866 291.332 529.785 269.623 554.314 250.458 C 515.648 226.664 508.039 201.187 510.378 157.033 C 511.131 142.82 512.667 129.72 524.847 120.833 z"/>
  <path transform="translate(0,0)" fill="rgb(19,22,29)" d="M 562.261 277.834 C 565.035 278.435 569.442 279.957 570.638 282.657 C 575.714 294.115 575.738 309.618 564.888 316.987 C 550.255 314.458 552.59 297.981 554.621 286.741 C 555.521 281.756 558.191 280.213 562.261 277.834 z"/>
  <path transform="translate(0,0)" fill="rgb(19,22,29)" d="M 633.304 277.583 C 636.381 278.309 640.697 279.709 641.98 282.826 C 646.662 294.197 647.021 310.23 635.866 317.23 C 633.37 316.59 628.878 314.861 627.863 312.418 C 623.037 300.804 622.474 285.307 633.304 277.583 z"/>
  <path transform="translate(0,0)" fill="rgb(122,210,78)" d="M 660.721 150.851 C 661.866 152.583 660.793 169.005 660.663 172.647 C 651.798 179.173 643.402 186.044 635.644 193.858 C 642.271 200.925 652.235 208.28 660.744 212.952 L 660.367 234.562 L 652.195 229.15 L 619.874 204.265 L 619.379 186.819 C 627.921 178.711 652.353 156.185 660.721 150.851 z"/>
  <path transform="translate(0,0)" fill="rgb(122,210,78)" d="M 683.088 149.475 C 693.242 153.424 714.923 173.129 723.861 181.229 C 724.042 186.696 723.734 192.473 723.543 197.965 C 713.71 206.159 704.023 215.032 694.36 223.499 C 691.191 226.384 686.577 229.792 683.107 232.506 L 683.139 210.91 C 691.403 204.144 700.464 197.097 707.07 188.739 C 700.018 181.396 691.805 175.264 682.761 170.589 L 683.088 149.475 z"/>
</svg>