<?xml version="1.0" encoding="UTF-8"?>
<svg xmlns="http://www.w3.org/2000/svg" viewBox="604.61 653.78 180.80 180.26">
  <defs>
    <linearGradient id="Gradient30" gradientUnits="userSpaceOnUse" x1="685.436" y1="823.379" x2="679.566" y2="690.665">
      <stop class="stop0" offset="0" stop-opacity="1" stop-color="rgb(47,57,66)"/>
      <stop class="stop1" offset="1" stop-opacity="1" stop-color="rgb(102,108,113)"/>
    </linearGradient>
  </defs>
  <path transform="translate(0,0)" fill="url(#Gradient30)" d="M 670.71 689.043 L 695.797 689.145 C 696.813 695.466 697.402 703.071 698.398 709.775 C 709.766 719.211 721.201 727.508 733.096 736.16 C 733.825 736.691 735.889 742.612 736.311 743.846 C 758.11 745.809 754.364 750.031 753.857 770.245 C 747.714 771.605 742.661 771.951 736.44 772.497 L 731.161 784.207 C 733.698 788.247 737.341 793.161 740.128 797.162 C 734.59 803.017 728.857 808.685 722.938 814.156 C 718.8 810.722 715.262 808.069 710.89 804.928 C 706.82 806.213 701.772 808.392 697.713 810.017 C 697.223 815.498 696.456 820.607 695.653 826.036 L 679.75 825.908 L 670.434 825.579 C 669.432 820.762 668.91 814.841 668.34 809.864 L 655.316 804.469 C 651.317 807.921 647.693 810.695 643.466 813.873 L 626.281 797.557 L 636.056 784.515 L 630.412 772.163 C 624.819 772.09 618.729 771.325 613.123 770.751 L 612.611 746.578 L 630.388 743.692 C 631.358 740.508 633.665 735.06 634.936 731.774 L 625.383 719.421 C 630.772 713.263 636.138 707.891 641.894 702.089 L 654.653 711.604 C 658.885 709.49 663.243 707.799 667.625 706.017 C 668.327 700.501 668.855 694.211 670.71 689.043 z"/>
  <path transform="translate(0,0)" fill="rgb(19,22,29)" d="M 676.8 729.368 C 692.296 725.615 707.906 735.113 711.695 750.6 C 715.484 766.087 706.023 781.719 690.544 785.545 C 675.015 789.383 659.319 779.884 655.517 764.345 C 651.716 748.806 661.252 733.133 676.8 729.368 z"/>
  <path transform="translate(0,0)" fill="rgb(161,235,93)" d="M 764.031 662.159 C 768.078 661.881 773.262 661.892 777.411 661.779 C 774.744 692.525 752.536 737.238 718.009 708.724 L 717.24 707.9 C 702.299 691.659 715.83 674.607 728.843 663.127 C 729.184 669.763 729.788 676.815 730.254 683.477 C 741.211 670.618 747.362 666.164 764.031 662.159 z"/>
</svg>