<?xml version="1.0" encoding="UTF-8"?>
<svg xmlns="http://www.w3.org/2000/svg" viewBox="1279.26 662.16 265.85 180.64">
  <defs>
    <linearGradient id="Gradient32" gradientUnits="userSpaceOnUse" x1="1410.82" y1="830.129" x2="1417.99" y2="678">
      <stop class="stop0" offset="0" stop-opacity="1" stop-color="rgb(89,189,67)"/>
      <stop class="stop1" offset="1" stop-opacity="1" stop-color="rgb(157,244,87)"/>
    </linearGradient>
  </defs>
  <path transform="translate(0,0)" fill="url(#Gradient32)" d="M 1353.83 760.342 C 1394.87 719.451 1445.74 734.756 1451.13 729.967 L 1451.84 726.503 C 1449.13 723.66 1432.29 717.631 1426.32 714.502 C 1418.97 710.647 1395.87 681.976 1407.31 677.405 C 1425.43 670.157 1457.39 692.527 1470.93 704.748 C 1486.92 700.878 1501.03 700.797 1514.75 709.344 C 1534.83 721.861 1531.35 747.985 1506.12 750.425 C 1501.18 750.903 1489.16 750.709 1485.84 752.411 C 1487.68 755.802 1498.26 761.093 1502.25 762.243 C 1511.43 764.893 1528.45 758.611 1536.02 766.748 C 1536.95 769.737 1537.11 770.94 1535.4 774.165 C 1532.81 779.12 1528.27 782.764 1522.87 784.212 C 1505.54 788.853 1488.89 777.361 1472.79 773.335 C 1451.91 768.114 1427.85 769.524 1407.75 776.849 C 1395.76 804.001 1376.38 808.848 1348.87 803.234 C 1334.84 810.712 1325.35 818.944 1310.18 825.731 C 1303.29 828.983 1291.15 834.798 1287.26 825.133 C 1287.72 819.112 1290.96 815.832 1294.64 811.157 C 1299.84 803.661 1306.44 797.239 1314.07 792.245 C 1321.68 793.49 1332.66 794.603 1335.26 784.477 C 1327.54 776.859 1306.65 771.481 1324.67 751.804 C 1332.12 743.663 1344.71 747.293 1351.27 756.585 C 1352.15 757.824 1353 759.077 1353.83 760.342 z"/>
  <path transform="translate(0,0)" fill="rgb(101,188,74)" d="M 1294.64 811.157 C 1292.73 816.886 1291.69 816.871 1293.32 821.478 C 1296.38 824.756 1305.64 825.691 1310.18 825.731 C 1303.29 828.983 1291.15 834.798 1287.26 825.133 C 1287.72 819.112 1290.96 815.832 1294.64 811.157 z"/>
  <path transform="translate(0,0)" fill="rgb(3,6,4)" d="M 1500.73 715.524 C 1511.12 717.231 1513.98 724.749 1509.18 733.667 C 1499.14 732.884 1496.42 723.944 1500.73 715.524 z"/>
  <path transform="translate(0,0)" fill="rgb(161,235,93)" d="M 1325.58 694.232 C 1334.79 694.143 1376.84 692.58 1382.32 695.747 C 1383.17 698.769 1383.28 697.316 1381.82 700.235 C 1372.32 700.428 1329.48 703.117 1325.14 697.525 L 1325.58 694.232 z"/>
  <path transform="translate(0,0)" fill="rgb(122,210,78)" d="M 1339.03 712.282 C 1347.86 712.068 1374.12 710.408 1382.8 713.39 C 1383.92 713.774 1383.95 716.346 1384.22 718 C 1375.58 718.25 1344.03 720.592 1339.08 715.992 L 1339.03 712.282 z"/>
  <path transform="translate(0,0)" fill="rgb(101,188,74)" d="M 1432.92 788.141 C 1440.37 787.436 1466.89 785.74 1472.01 790.004 L 1472.37 793.938 C 1463.81 793.991 1438.71 796.169 1433.12 791.976 L 1432.92 788.141 z"/>
</svg>