<?xml version="1.0" encoding="UTF-8"?>
<svg xmlns="http://www.w3.org/2000/svg" viewBox="323.38 672.01 234.10 178.46">
  <defs>
    <linearGradient id="Gradient17" gradientUnits="userSpaceOnUse" x1="489.187" y1="832.942" x2="480.653" y2="763.463">
      <stop class="stop0" offset="0" stop-opacity="1" stop-color="rgb(79,186,58)"/>
      <stop class="stop1" offset="1" stop-opacity="1" stop-color="rgb(147,240,85)"/>
    </linearGradient>
    <linearGradient id="Gradient28" gradientUnits="userSpaceOnUse" x1="440.601" y1="819.009" x2="439.684" y2="682.325">
      <stop class="stop0" offset="0" stop-opacity="1" stop-color="rgb(47,56,65)"/>
      <stop class="stop1" offset="1" stop-opacity="1" stop-color="rgb(98,103,110)"/>
    </linearGradient>
  </defs>
  <path transform="translate(0,0)" fill="url(#Gradient28)" d="M 337.072 681.921 L 470.637 681.982 C 485.688 681.971 531.465 680.009 547.195 685.051 C 548.209 685.376 548.945 691.421 548.937 693.094 C 548.848 728.754 548.407 764.457 549.123 800.12 C 549.476 817.731 538.151 815.855 523.896 815.429 C 521.129 812.7 518.595 809.252 516.169 806.172 L 540.225 806.002 C 540.74 767.532 540.818 729.058 540.458 690.586 L 457.957 690.623 C 418.975 690.376 379.992 690.439 341.011 690.813 L 341.079 806.095 L 445.725 806.222 L 445.613 820.916 L 378.146 821.115 C 368.465 821.138 344.814 821.801 336.587 819.828 C 331.377 814.403 332.757 788.66 332.772 779.961 C 332.824 749.409 332.478 718.678 332.995 688.13 C 333.039 685.514 335.446 683.702 337.072 681.921 z"/>
  <path transform="translate(0,0)" fill="url(#Gradient17)" d="M 455.553 763.274 C 461.983 763.987 505.761 783.902 510.927 788.507 C 508.8 793.138 499.744 796.089 494.678 798.299 C 500.637 807.592 512.994 817.889 513.349 827.605 C 501.189 842.466 489.419 819.726 481.286 809.743 C 478.483 813.812 474.513 820.659 469.918 822.131 C 462.506 818.386 455.812 772.264 455.553 763.274 z"/>
  <path transform="translate(0,0)" fill="rgb(161,235,93)" d="M 363.236 707.508 C 368.656 708.781 382.131 719.445 383.905 724.805 C 382.919 732.31 374.614 736.36 367.63 742.599 C 367.307 742.867 365.347 743.849 365.054 744.002 L 362.26 743.01 L 361.528 741.337 C 362.706 735.996 371.509 729.442 375.919 725.638 C 369.834 720.228 360.233 715.987 363.236 707.508 z"/>
  <path transform="translate(0,0)" fill="rgb(161,235,93)" d="M 394.112 748.46 C 400.829 748.341 422.383 746.831 426.783 750.058 C 427.455 753.218 427.524 751.92 425.814 755.223 C 418.106 755.258 400.832 756.366 393.751 754.081 C 392.431 753.655 392.684 752.86 392.312 751.134 L 394.112 748.46 z"/>
</svg>