<?xml version="1.0" encoding="UTF-8"?>
<svg xmlns="http://www.w3.org/2000/svg" viewBox="1022.75 663.05 221.84 181.92">
  <defs>
    <linearGradient id="Gradient5" gradientUnits="userSpaceOnUse" x1="1069.16" y1="822.927" x2="1070.68" y2="791.598">
      <stop class="stop0" offset="0" stop-opacity="1" stop-color="rgb(75,136,71)"/>
      <stop class="stop1" offset="1" stop-opacity="1" stop-color="rgb(91,166,71)"/>
    </linearGradient>
    <linearGradient id="Gradient13" gradientUnits="userSpaceOnUse" x1="1181.99" y1="788.532" x2="1171.33" y2="720.479">
      <stop class="stop0" offset="0" stop-opacity="1" stop-color="rgb(104,206,70)"/>
      <stop class="stop1" offset="1" stop-opacity="1" stop-color="rgb(152,241,86)"/>
    </linearGradient>
    <linearGradient id="Gradient27" gradientUnits="userSpaceOnUse" x1="1097.58" y1="797.967" x2="1118.92" y2="673.643">
      <stop class="stop0" offset="0" stop-opacity="1" stop-color="rgb(87,178,69)"/>
      <stop class="stop1" offset="1" stop-opacity="1" stop-color="rgb(156,244,87)"/>
    </linearGradient>
  </defs>
  <path transform="translate(0,0)" fill="url(#Gradient27)" d="M 1118.97 671.052 C 1133.54 677.608 1151.55 691.75 1161.84 703.956 C 1148.58 711.013 1145.32 713.83 1134.45 724.17 C 1133.81 735.581 1134.47 742.798 1135.24 754.181 C 1131.83 751.921 1128.44 749.087 1124.44 749.061 C 1114.98 751.256 1110.04 772.653 1104.15 782.008 C 1093.53 779.18 1089.6 776.226 1081.61 785.229 L 1079.81 786.687 L 1079.8 791.441 C 1076.77 792.589 1057.67 792.241 1055.59 789.698 C 1056.39 786.692 1056.36 786.037 1056.46 782.885 C 1063.44 764.708 1107.62 683.221 1118.97 671.052 z"/>
  <path transform="translate(0,0)" fill="url(#Gradient13)" d="M 1182.33 718.408 C 1185.93 717.974 1186.24 717.814 1189.64 718.795 C 1195.65 724.758 1186.51 778.44 1184.06 788.761 C 1183.34 791.791 1171.56 792.075 1168.96 792.207 C 1165.13 791.504 1164.52 790.927 1162.56 788.472 C 1161.29 781.077 1157.09 727.633 1159.05 723.594 C 1165.7 718.689 1174.04 719.046 1182.33 718.408 z"/>
  <path transform="translate(0,0)" fill="rgb(56,65,73)" d="M 1204.07 756.641 C 1213.2 764.929 1233.57 799.347 1235.77 812.519 C 1236.59 817.404 1236.07 817.968 1233.75 821.346 C 1225.62 821.874 1214.4 821.623 1206.04 821.67 C 1206.24 809.13 1205.62 804.811 1200.46 793.392 C 1202.52 781.407 1202.66 768.936 1204.07 756.641 z"/>
  <path transform="translate(0,0)" fill="url(#Gradient5)" d="M 1056.46 782.885 C 1056.36 786.037 1056.39 786.692 1055.59 789.698 C 1057.67 792.241 1076.77 792.589 1079.8 791.441 L 1079.81 786.687 L 1081.61 785.229 C 1080.78 799.022 1088.61 808.825 1095.43 821.35 C 1054.04 823.264 1030.75 836.974 1056.46 782.885 z"/>
  <path transform="translate(0,0)" fill="rgb(122,210,78)" d="M 1171.88 804.417 C 1182.2 803.627 1194.66 804.998 1188.17 821.313 C 1186.63 825.186 1182.31 825.993 1178.31 826.78 C 1169.79 827.306 1159.62 828.007 1158.46 816.947 C 1157.49 807.713 1164.92 804.816 1171.88 804.417 z"/>
</svg>